<svg width="720" height="900" viewBox="0 0 720 900" fill="none" xmlns="http://www.w3.org/2000/svg">
<path d="M0 0H720V900H0V0Z" fill="#1DB954" fill-opacity="0.12"/>
<path d="M540 195C540 294.411 620.589 375 720 375V195H540Z" fill="#FF6B6B"/>
<path d="M180 555C180 654.411 260.589 735 360 735V555H180Z" fill="#FFB36D"/>
<path d="M540 555C540 654.411 620.589 735 720 735V555H540Z" fill="#FFE66D" fill-opacity="0.56"/>
<path d="M360 375C360 474.411 440.589 555 540 555V375H360Z" fill="#598A8E"/>
<path d="M180 195C80.5887 195 0 275.589 0 375H180V195Z" fill="#1A535C"/>
<path d="M360 375C260.589 375 180 455.589 180 555H360V375Z" fill="#FFB36D"/>
<path d="M720 378C620.589 378 540 458.589 540 558H720V378Z" fill="#1DB954"/>
<path d="M180 735C180 635.589 99.4113 555 0 555L0 735H180Z" fill="#FF6B6B"/>
<path d="M180 375C279.411 375 360 294.411 360 195H180V375Z" fill="#598A8E"/>
<path d="M0 465C0 514.706 40.2944 555 90 555V465H0Z" fill="#FFE66D"/>
<path d="M90 375C40.2944 375 0 415.294 0 465H90V375Z" fill="#FFE66D"/>
<path d="M180 465C180 415.294 139.706 375 90 375L90 465H180Z" fill="#FFE66D"/>
<path d="M90 555C139.706 555 180 514.706 180 465H90V555Z" fill="#FFE66D"/>
<path d="M360 285C360 334.706 400.294 375 450 375V285H360Z" fill="#FFE66D"/>
<path d="M450 195C400.294 195 360 235.294 360 285H450V195Z" fill="#FFE66D"/>
<path d="M540 285C540 235.294 499.706 195 450 195V285H540Z" fill="#FFE66D"/>
<path d="M450 375C499.706 375 540 334.706 540 285H450V375Z" fill="#FFE66D"/>
<path d="M360 645C360 694.706 400.294 735 450 735V645H360Z" fill="#1A535C"/>
<path d="M450 555C400.294 555 360 595.294 360 645H450V555Z" fill="#1A535C"/>
<path d="M540 645C540 595.294 499.706 555 450 555V645H540Z" fill="#1A535C"/>
<path d="M450 735C499.706 735 540 694.706 540 645H450V735Z" fill="#1A535C"/>
<path d="M0 0H720V900H0V0Z" fill="black" fill-opacity="0.48"/>
</svg>
